Coordinates
version=1
nRows=6
nColumns=36
inDegrees=yes

Units are S.I. units (second, meters, Newtons, ...)
If the header above contains a line with 'inDegrees', this indicates whether rotational values are in degrees (yes) or radians (no).

endheader
time	pelvis_tilt	pelvis_list	pelvis_rotation	pelvis_tx	pelvis_ty	pelvis_tz	hip_flexion_r	hip_adduction_r	hip_rotation_r	knee_angle_r	knee_angle_r_beta	ankle_angle_r	subtalar_angle_r	mtp_angle_r	hip_flexion_l	hip_adduction_l	hip_rotation_l	knee_angle_l	knee_angle_l_beta	ankle_angle_l	subtalar_angle_l	mtp_angle_l	lumbar_extension	lumbar_bending	lumbar_rotation	arm_flex_r	arm_add_r	arm_rot_r	elbow_flex_r	pro_sup_r	arm_flex_l	arm_add_l	arm_rot_l	elbow_flex_l	pro_sup_l
      3.92916670	     -0.24486602	     -1.38557291	      2.74713941	      0.29969125	      0.98618674	     -0.06368273	      1.85138484	     -4.12761740	      2.41784873	      8.68426529	      0.15156902	      8.26572453	     -6.88285500	     -7.49999987	     -1.07366007	     -5.23051814	      5.08919745	      7.42049781	      0.12951212	      7.44757109	     -6.58451633	     -7.49999987	     -8.13006569	      1.17191926	      1.12211242	     21.18625329	     -1.42400249	     25.00308862	     82.40907853	     82.08194330	     25.37249317	     -3.90141857	     26.10224319	     91.39364086	     66.01802348
      3.93333330	     -0.21983920	     -1.36014915	      2.74866956	      0.29922630	      0.98734768	     -0.06258500	      1.74602325	     -4.14594035	      2.35486371	      8.49047789	      0.14818679	      8.18865773	     -6.81028798	     -7.49999987	     -1.13843751	     -5.21273310	      5.14534715	      7.34929380	      0.12826937	      7.26965133	     -6.74674985	     -7.49999987	     -8.15295952	      1.13698805	      1.10480571	     21.01211609	     -1.39484494	     25.13900437	     82.37715958	     80.93655129	     25.21780350	     -4.02590914	     26.14827359	     91.28530334	     65.65212918
      3.93750000	     -0.24380434	     -1.36317728	      2.73811241	      0.29900733	      0.98563681	     -0.06275745	      1.71944241	     -4.13953987	      2.28113619	      8.37886864	      0.14623885	      8.14949947	     -6.66188371	     -7.49999987	     -1.09146057	     -5.22581754	      5.10537012	      7.40145849	      0.12917982	      7.15583002	     -6.78452499	     -7.49999987	     -8.12987695	      1.18229214	      0.96261563	     20.88570686	     -1.26288602	     24.98791498	     82.27177295	     85.56901407	     24.76887315	     -4.15368582	     25.90044043	     91.39806124	     67.20251117
      3.94166670	     -0.21232579	     -1.33958933	      2.70146856	      0.29889043	      0.98642248	     -0.06276756	      1.66941630	     -4.14450087	      2.37888319	      8.32403706	      0.14528185	      8.02506986	     -6.81655767	     -7.49999987	     -1.17543729	     -5.22118796	      4.98915136	      7.33429177	      0.12800754	      7.15160140	     -6.62893172	     -7.49999987	     -8.17501253	      1.15654435	      1.10346043	     20.79091519	     -1.45010095	     24.81576822	     82.24517035	     83.98495411	     24.67056124	     -4.19461138	     26.10321363	     91.17708787	     66.65899572
      3.94583330	     -0.19649309	     -1.31055360	      2.71253435	      0.29832348	      0.98893806	     -0.06294497	      1.63239041	     -4.18854399	      2.37389606	      8.25642644	      0.14410183	      7.85564928	     -6.85305112	     -7.49999987	     -1.20885171	     -5.17959325	      4.98069819	      7.28000338	      0.12706003	      6.98138907	     -6.65681987	     -7.49999987	     -8.28649123	      1.14244664	      1.12900333	     20.50791269	     -1.50582032	     24.55495892	     82.35406645	     86.05146616	     24.55472056	     -4.30544135	     26.23345877	     90.85162884	     67.39578018
      3.95000000	     -0.17906793	     -1.28382162	      2.66893390	      0.29857717	      0.98901033	     -0.06371318	      1.60798910	     -4.20212793	      2.52282048	      8.13991603	      0.14206834	      7.63274876	     -7.08265053	     -7.49999987	     -1.30346601	     -5.12870732	      4.88672667	      7.10138448	      0.12394254	      6.91274807	     -6.64665423	     -7.49999987	     -8.31375105	      1.11377524	      1.16547205	     20.30549842	     -1.70825735	     24.51933394	     82.29238596	     83.27896177	     24.36593108	     -4.45139270	     26.36003897	     90.60384771	     66.58691506
